Coordinates
version=1
nRows=38
nColumns=12
inDegrees=yes

Units are S.I. units (second, meters, Newtons, ...)
Angles are in degrees

endheader
time	SC_y	SC_z	SC_x	AC_y	AC_z	AC_x	GH_y	GH_z	GH_yy	EL_x	PS_y
       0.0              -57.96          27.81          52.17          31.06         -6.859          18.65         -15.64          6.465         -122.6          25.39          41.01
   0.03271              -57.96          27.81          52.16          31.07         -6.857          18.65         -15.66          6.476         -122.6          25.39          41.01
   0.06543              -57.96          27.81          52.16          31.07         -6.856          18.65         -15.69          6.487         -122.5          25.39          41.02
   0.09814              -57.96          27.81          52.15          31.08         -6.855          18.65         -15.71          6.499         -122.5          25.39          41.02
    0.1309              -57.96          27.82          52.14          31.08         -6.853          18.65         -15.74          6.512         -122.5          25.39          41.03
    0.1636              -57.96          27.82          52.13          31.09         -6.851          18.65         -15.77          6.525         -122.4          25.38          41.04
    0.1963              -57.95          27.82          52.12           31.1          -6.85          18.65          -15.8           6.54         -122.4          25.38          41.04
     0.229              -57.95          27.82          52.11           31.1         -6.848          18.65         -15.83          6.555         -122.4          25.38          41.05
    0.2617              -57.95          27.82           52.1          31.11         -6.846          18.64         -15.87          6.572         -122.3          25.38          41.06
    0.2944              -57.95          27.83          52.09          31.12         -6.843          18.64          -15.9           6.59         -122.3          25.37          41.07
    0.3271              -57.95          27.83          52.08          31.13         -6.841          18.64         -15.94          6.609         -122.2          25.37          41.08
    0.3598              -57.95          27.83          52.07          31.14         -6.838          18.64         -15.99          6.629         -122.2          25.37          41.09
    0.3926              -57.95          27.83          52.05          31.15         -6.836          18.64         -16.04          6.652         -122.1          25.37           41.1
    0.4253              -57.95          27.84          52.04          31.16         -6.833          18.64         -16.09          6.676         -122.0          25.36          41.11
     0.458              -57.95          27.84          52.02          31.17         -6.829          18.64         -16.14          6.702         -122.0          25.36          41.12
    0.4907              -57.95          27.84           52.0          31.19         -6.826          18.64          -16.2           6.73         -121.9          25.35          41.13
    0.5234              -57.95          27.85          51.98           31.2         -6.822          18.64         -16.27           6.76         -121.8          25.35          41.15
    0.5561              -57.95          27.85          51.96          31.22         -6.818          18.64         -16.34          6.794         -121.7          25.35          41.17
    0.5888              -57.95          27.85          51.94          31.23         -6.813          18.64         -16.42           6.83         -121.6          25.34          41.18
    0.6216              -57.94          27.86          51.91          31.25         -6.808          18.63          -16.5           6.87         -121.5          25.34           41.2
    0.6543              -57.94          27.86          51.88          31.27         -6.803          18.63         -16.59          6.914         -121.4          25.33          41.22
     0.687              -57.94          27.87          51.85          31.29         -6.797          18.63          -16.7          6.962         -121.3          25.32          41.25
    0.7197              -57.94          27.87          51.82          31.32          -6.79          18.63         -16.81          7.015         -121.1          25.32          41.27
    0.7524              -57.94          27.88          51.78          31.35         -6.783          18.63         -16.93          7.074         -121.0          25.31           41.3
    0.7851              -57.94          27.89          51.74          31.38         -6.775          18.62         -17.07          7.139         -120.8           25.3          41.33
    0.8178              -57.93           27.9          51.69          31.41         -6.766          18.62         -17.23          7.213         -120.6          25.29          41.37
    0.8505              -57.93          27.91          51.64          31.45         -6.756          18.62          -17.4          7.294         -120.4          25.28           41.4
    0.8833              -57.93          27.92          51.58          31.49         -6.744          18.61          -17.6          7.387         -120.2          25.26          41.45
     0.916              -57.93          27.93          51.52          31.54         -6.731          18.61         -17.82          7.491         -119.9          25.25           41.5
    0.9487              -57.92          27.94          51.44          31.59         -6.717          18.61         -18.07          7.609         -119.6          25.23          41.55
    0.9814              -57.92          27.96          51.35          31.66           -6.7           18.6         -18.36          7.744         -119.2          25.21          41.62
     1.014              -57.91          27.98          51.25          31.73         -6.681           18.6         -18.69          7.898         -118.8          25.19          41.69
     1.047              -57.91           28.0          51.14          31.81         -6.658          18.59         -19.07          8.077         -118.3          25.17          41.78
      1.08               -57.9          28.02          51.01          31.91         -6.632          18.58         -19.51          8.285         -117.8          25.14          41.88
     1.112              -57.89          28.05          50.85          32.02         -6.602          18.57         -20.03          8.528         -117.2           25.1          41.99
     1.145              -57.88          28.08          50.67          32.15         -6.567          18.56         -20.64          8.814         -116.4          25.06          42.13
     1.178              -57.87          28.12          50.45          32.31         -6.524          18.55         -21.36          9.155         -115.5          25.02          42.29
      1.21              -57.86          28.17          50.19           32.5         -6.474          18.53         -22.23          9.563         -114.4          24.96          42.49
